<?xml version="1.0" standalone="no"?>
<!DOCTYPE svg PUBLIC "-//W3C//DTD SVG 20010904//EN"
 "http://www.w3.org/TR/2001/REC-SVG-20010904/DTD/svg10.dtd">
<svg version="1.0" xmlns="http://www.w3.org/2000/svg"
 width="409.000000pt" height="409.000000pt" viewBox="0 0 409.000000 409.000000"
 preserveAspectRatio="xMidYMid meet">
<metadata>
Created by potrace 1.11, written by Peter Selinger 2001-2013
</metadata>
<g transform="translate(0.000000,409.000000) scale(0.100000,-0.100000)"
fill="#000000" stroke="none">
<path d="M2055 4079 c-276 -15 -604 -66 -730 -113 -187 -71 -315 -205 -379
-396 -41 -125 -92 -432 -121 -732 -21 -229 -30 -836 -16 -1103 22 -404 76
-841 126 -1035 31 -116 118 -296 179 -370 99 -120 244 -210 401 -250 92 -23
374 -54 649 -71 113 -7 362 -10 615 -7 513 5 495 0 515 124 6 35 4 46 -16 68
-37 43 -79 47 -339 34 -177 -8 -303 -8 -510 0 -290 13 -612 36 -717 53 -221
35 -396 144 -466 293 -71 151 -134 467 -166 846 -19 216 -27 693 -19 1076 17
831 77 1083 282 1184 67 33 241 65 489 92 188 20 770 17 1050 -6 255 -21 265
-19 318 41 19 21 30 45 30 64 0 31 -29 98 -52 116 -33 28 -400 78 -673 93
-208 11 -230 11 -450 -1z"/>
<path d="M1563 3693 c-75 -70 -103 -263 -54 -370 27 -61 83 -115 136 -133 55
-18 194 -8 295 23 47 14 135 33 195 42 276 43 594 -16 693 -130 34 -37 34 -39
30 -122 -3 -76 -6 -86 -28 -104 -19 -15 -35 -19 -65 -15 -22 3 -107 14 -190
25 -351 48 -573 35 -859 -48 -76 -22 -96 -34 -144 -82 -78 -77 -89 -154 -44
-314 60 -211 86 -427 86 -710 0 -303 -28 -467 -134 -790 -117 -356 -126 -454
-48 -509 62 -44 115 4 176 156 86 217 146 496 176 824 9 89 23 231 32 315 21
192 24 574 6 674 -15 80 -4 164 26 204 40 55 57 60 235 72 193 14 486 0 572
-27 28 -9 90 -17 140 -17 148 -3 186 27 248 196 26 72 30 95 30 192 1 99 -2
118 -31 194 -35 95 -57 123 -124 157 -52 26 -212 67 -331 83 -97 14 -417 14
-552 1 -217 -22 -280 -23 -291 -9 -6 8 -21 57 -34 109 -13 54 -32 105 -43 118
-28 30 -68 28 -104 -5z"/>
<path d="M2193 2424 c-11 -16 -22 -36 -25 -44 -3 -9 -2 -126 2 -260 13 -376
57 -613 184 -995 64 -189 180 -480 234 -585 77 -147 238 -166 219 -25 -4 24
-36 126 -73 227 -197 545 -263 762 -303 998 -24 140 -36 329 -22 349 37 56
292 -158 483 -406 84 -108 115 -133 170 -133 68 0 100 51 74 115 -30 70 -143
221 -249 332 -127 132 -253 235 -435 358 -117 78 -138 89 -185 93 -50 4 -55 2
-74 -24z"/>
</g>
</svg>
