<?xml version="1.0" standalone="no"?>
<!DOCTYPE svg PUBLIC "-//W3C//DTD SVG 20010904//EN"
 "http://www.w3.org/TR/2001/REC-SVG-20010904/DTD/svg10.dtd">
<svg version="1.0" xmlns="http://www.w3.org/2000/svg"
 width="1376.000000pt" height="1376.000000pt" viewBox="0 0 1376.000000 1376.000000"
 preserveAspectRatio="xMidYMid meet">
<metadata>
Created by potrace 1.14, written by Peter Selinger 2001-2017
</metadata>
<g transform="translate(0.000000,1376.000000) scale(0.100000,-0.100000)"
fill="#000000" stroke="none">
<path d="M6378 11075 c-2 -2 -80 -6 -173 -9 -94 -3 -170 -5 -170 -6 0 -1 -40
-3 -90 -5 -49 -2 -126 -6 -170 -10 -44 -3 -107 -8 -140 -10 -33 -2 -89 -7
-125 -10 -36 -3 -92 -8 -125 -11 -101 -8 -150 -12 -150 -14 0 0 -25 -3 -55 -5
-30 -3 -73 -7 -95 -10 -43 -6 -121 -15 -170 -20 -16 -1 -30 -4 -30 -4 0 -1
-18 -4 -40 -6 -21 -3 -55 -7 -75 -10 -19 -3 -55 -8 -80 -11 -43 -5 -66 -8
-127 -19 -16 -2 -71 -11 -123 -19 -52 -8 -104 -17 -115 -19 -11 -3 -52 -10
-92 -17 -89 -15 -108 -18 -108 -20 0 -1 -9 -3 -20 -4 -21 -3 -74 -13 -115 -22
-14 -3 -34 -6 -45 -8 -25 -4 -83 -16 -160 -35 -22 -5 -51 -12 -65 -15 -14 -2
-45 -9 -70 -15 -25 -7 -54 -14 -65 -16 -42 -8 -183 -43 -260 -64 -44 -12 -89
-24 -100 -26 -11 -3 -51 -14 -90 -26 -220 -65 -319 -97 -490 -156 -104 -36
-200 -67 -212 -70 -13 -3 -23 -9 -23 -14 0 -5 -3 -8 -8 -8 -4 1 -9 0 -12 -1
-3 -1 -12 -3 -20 -5 -8 -2 -28 -9 -45 -16 -16 -7 -32 -13 -35 -14 -3 -1 -18
-7 -33 -13 -16 -7 -35 -12 -43 -12 -8 0 -14 -5 -14 -10 0 -6 -6 -10 -12 -9 -7
1 -35 -8 -63 -20 -27 -13 -54 -24 -60 -25 -5 -2 -36 -15 -69 -29 -32 -15 -60
-27 -62 -27 -1 0 -56 -25 -121 -56 -65 -30 -122 -56 -128 -57 -5 -1 -12 -5
-15 -8 -3 -3 -50 -28 -105 -56 -140 -70 -271 -143 -407 -230 -139 -88 -298
-199 -315 -221 -7 -9 -13 -12 -13 -6 0 5 -3 5 -8 -1 -4 -5 -34 -32 -67 -60
-245 -205 -425 -414 -554 -643 -86 -154 -172 -409 -175 -519 0 -13 -2 -23 -5
-23 -9 0 -14 -99 -13 -235 1 -158 30 -309 86 -452 14 -35 20 -63 14 -63 -10 0
-8 -14 7 -80 2 -8 4 -15 5 -15 1 0 6 -17 13 -47 1 -7 6 -18 10 -25 4 -6 9 -24
11 -40 5 -29 55 -195 76 -248 6 -16 12 -32 12 -35 3 -17 36 -101 41 -107 4 -3
7 -14 7 -23 0 -9 9 -35 20 -58 11 -22 20 -46 20 -51 0 -6 14 -40 30 -76 17
-36 30 -68 30 -71 0 -6 21 -52 87 -194 24 -52 52 -111 60 -130 9 -19 22 -42
29 -50 7 -8 13 -19 13 -23 0 -11 94 -186 147 -274 24 -40 44 -77 44 -83 0 -5
3 -10 8 -10 4 0 16 -17 27 -37 17 -32 91 -149 113 -178 4 -5 20 -30 37 -55 16
-25 32 -47 35 -50 4 -3 16 -22 29 -42 12 -21 27 -38 32 -38 6 0 7 -4 4 -10 -3
-5 -1 -10 4 -10 6 0 11 -6 11 -14 0 -8 4 -16 9 -18 5 -1 34 -37 65 -78 32 -41
67 -86 79 -100 12 -14 29 -36 38 -50 9 -14 34 -44 55 -67 22 -23 54 -60 72
-82 138 -167 511 -535 713 -703 24 -20 55 -46 69 -58 14 -12 41 -34 60 -49 19
-14 42 -32 50 -40 35 -34 369 -278 487 -355 70 -47 133 -88 139 -93 23 -18 50
-34 67 -39 9 -4 17 -10 17 -15 0 -5 5 -9 10 -9 6 0 34 -15 63 -33 29 -18 59
-36 67 -40 8 -4 33 -18 55 -32 22 -14 51 -30 65 -37 14 -7 27 -15 30 -18 3 -3
37 -21 75 -40 39 -19 78 -41 88 -49 9 -8 17 -11 17 -7 0 4 12 -1 28 -12 15
-10 50 -29 77 -42 28 -13 97 -45 155 -72 120 -57 129 -61 265 -117 55 -23 111
-47 125 -54 14 -6 33 -12 42 -13 10 0 24 -7 33 -14 8 -7 15 -10 15 -6 0 4 12
0 28 -8 37 -19 451 -156 479 -158 13 -2 23 -5 23 -9 0 -3 6 -6 13 -6 6 0 66
-15 132 -33 66 -18 128 -34 138 -36 9 -2 25 -6 35 -8 112 -28 147 -34 151 -31
2 3 9 1 15 -4 6 -6 32 -12 58 -15 25 -3 52 -8 59 -11 8 -2 25 -7 39 -9 14 -3
34 -7 45 -9 11 -3 42 -8 69 -11 27 -4 52 -9 55 -10 3 -2 33 -7 66 -11 32 -3
62 -8 65 -10 3 -2 28 -6 55 -9 28 -3 73 -8 100 -12 28 -3 64 -8 80 -9 17 -2
50 -6 75 -9 63 -7 142 -14 230 -21 41 -3 111 -8 155 -11 102 -8 897 -13 910
-6 5 3 36 7 70 8 33 1 94 5 135 9 41 3 100 8 130 11 30 2 75 6 100 10 25 3 68
7 95 10 28 2 60 6 71 8 12 3 48 8 80 12 62 7 89 11 89 14 0 1 16 3 35 5 19 2
51 6 70 10 19 3 49 8 65 11 17 3 77 14 135 26 58 11 116 22 130 25 22 4 65 14
120 27 13 4 193 47 213 52 4 1 8 2 10 4 1 1 9 3 17 5 30 5 176 47 250 71 41
13 77 24 80 23 3 0 30 9 60 21 30 12 60 23 65 24 6 1 16 5 23 9 6 5 12 6 12 2
0 -3 17 2 38 11 20 8 79 31 131 50 52 19 100 39 108 45 7 6 13 9 13 6 0 -8 61
13 79 27 7 5 18 11 25 12 6 1 38 14 71 29 33 16 65 29 70 30 6 2 45 19 88 39
42 20 80 36 84 36 3 0 14 7 24 16 9 8 23 16 31 18 13 2 144 67 248 123 30 17
80 43 110 59 30 16 57 31 60 34 3 3 22 14 43 25 20 11 37 23 37 27 0 5 5 8 11
8 16 0 353 210 414 257 6 5 23 17 40 27 16 11 34 23 40 27 5 5 87 66 180 135
94 70 172 130 175 133 3 4 46 40 95 80 290 237 671 616 860 855 17 20 37 45
46 54 8 9 29 35 45 57 16 21 36 47 44 56 32 35 49 59 42 59 -4 0 -2 4 5 8 6 4
34 39 62 77 27 39 54 75 58 80 5 6 35 51 68 100 32 50 63 92 67 93 4 2 8 8 8
14 0 9 45 82 91 150 11 15 19 29 19 31 0 3 28 53 63 113 34 60 75 136 92 169
16 33 33 62 37 63 4 2 8 8 8 14 0 6 22 56 49 112 26 55 56 119 66 141 9 22 25
58 35 80 9 22 24 56 32 75 23 53 109 279 112 293 2 6 8 25 14 40 7 16 12 34
12 40 0 7 7 22 15 34 9 12 14 26 13 30 -1 4 9 42 22 83 13 41 25 77 25 80 10
44 33 109 59 165 69 148 103 249 121 361 3 22 9 55 13 74 13 70 6 368 -12 485
-6 39 -75 247 -87 261 -5 6 -6 14 -2 17 3 4 1 7 -5 7 -7 0 -12 6 -12 14 0 7
-18 46 -40 86 -22 40 -40 77 -40 81 0 5 -4 9 -9 9 -5 0 -14 14 -21 30 -7 17
-16 30 -21 30 -5 0 -9 7 -9 15 0 8 -4 15 -10 15 -5 0 -10 6 -10 13 0 7 -10 23
-23 37 -13 14 -27 32 -33 42 -45 79 -408 438 -443 438 -6 0 -11 4 -11 9 0 17
-364 271 -388 271 -7 0 -12 5 -12 10 0 6 -7 10 -15 10 -8 0 -15 5 -15 10 0 6
-5 10 -11 10 -6 0 -31 14 -56 30 -24 17 -51 30 -59 30 -7 0 -14 3 -14 8 0 4
-10 12 -23 18 -66 32 -222 116 -234 125 -7 6 -13 9 -13 6 0 -3 -39 14 -87 38
-128 62 -186 88 -200 88 -7 0 -13 3 -13 7 0 3 -17 12 -37 19 -21 8 -61 24 -90
37 -28 13 -55 24 -58 24 -3 0 -26 9 -51 20 -43 20 -168 68 -249 97 -22 7 -47
16 -55 20 -8 3 -19 7 -25 9 -12 3 -123 43 -145 51 -8 4 -17 7 -20 8 -8 2 -266
84 -335 107 -33 11 -71 22 -85 24 -14 3 -46 11 -71 20 -25 8 -54 16 -65 19
-10 2 -55 14 -99 25 -44 12 -107 28 -140 36 -33 9 -69 18 -80 21 -36 9 -99 23
-130 29 -41 8 -48 10 -65 17 -8 3 -53 13 -100 22 -47 9 -114 23 -150 30 -36 7
-78 15 -95 18 -16 3 -43 9 -60 12 -16 3 -57 10 -90 16 -33 6 -70 12 -82 15
-13 2 -33 6 -45 8 -28 5 -152 25 -193 31 -57 8 -110 15 -150 20 -22 3 -52 8
-67 11 -15 3 -46 7 -70 9 -24 2 -54 6 -68 9 -31 5 -118 16 -185 22 -27 2 -70
6 -95 10 -25 3 -63 7 -85 9 -22 2 -40 4 -40 5 0 0 -27 3 -60 5 -33 2 -91 7
-130 10 -38 3 -99 8 -135 10 -36 2 -65 5 -65 5 0 2 -81 7 -235 15 -63 3 -153
8 -200 11 -105 6 -1237 14 -1242 9z"/>
</g>
</svg>
